<svg width="427" height="427" viewBox="0 0 427 427" fill="none" xmlns="http://www.w3.org/2000/svg">
<path d="M62.4665 396.386C145.884 436.137 281.059 436.137 364.476 396.386C447.893 356.636 447.789 292.245 364.476 252.494C281.163 212.744 145.925 212.754 62.5499 252.494C-20.8256 292.235 -20.8465 356.657 62.4665 396.386Z" fill="#EBEBEB"/>
<path d="M331.234 100.938L335.067 97.9905V89.5551C335.067 82.8796 340.388 75.1211 346.179 71.7782C351.969 68.4353 356.666 71.1429 356.666 77.8288V79.0472C357.883 77.0707 359.545 75.4055 361.519 74.1839C365.684 71.7782 369.069 73.7256 369.069 78.537V79.0993L376.734 74.6733C379.472 73.0904 381.701 74.3713 381.701 77.5372C381.607 79.2604 381.108 80.9372 380.245 82.4317C379.382 83.9262 378.179 85.1963 376.734 86.1393L331.234 112.404C328.495 113.987 326.267 112.706 326.267 109.54C326.361 107.817 326.86 106.14 327.723 104.645C328.586 103.151 329.789 101.881 331.234 100.938Z" fill="#EBEBEB"/>
<path d="M56.3117 330.194C55.7702 330.101 55.1974 329.934 54.5518 329.767C52.3757 329.184 50.231 328.488 48.1262 327.684C43.9283 326.161 39.9692 324.047 36.3687 321.405C34.3941 320.001 32.7047 318.233 31.3907 316.198C30.0774 314.137 29.611 311.648 30.089 309.251C30.3535 308.069 30.9511 306.986 31.811 306.132C32.6709 305.277 33.7573 304.687 34.942 304.43C36.0563 304.253 37.2122 304.43 38.3265 304.232C38.8971 304.186 39.4381 303.96 39.8709 303.585C40.3036 303.21 40.6054 302.707 40.7322 302.149C40.7367 301.51 40.5636 300.883 40.2323 300.337C38.209 296.631 36.4684 292.777 35.0253 288.809C33.8173 285.267 33.7445 281.437 34.817 277.853C35.7277 274.287 37.6779 271.071 40.4198 268.616C41.6695 267.574 43.3982 266.679 44.9083 267.335C45.3884 267.579 45.8101 267.924 46.1444 268.347C46.4787 268.769 46.7178 269.259 46.8453 269.782C47.0784 270.828 47.1971 271.897 47.1994 272.969C47.3481 275.275 47.789 277.553 48.5116 279.748C48.8349 281.12 49.6222 282.338 50.7402 283.195C52.6772 284.403 55.3432 283.456 57.4052 284.435C59.4672 285.414 60.1754 287.663 60.2691 289.788C60.3628 291.912 59.9359 294.057 60.1754 296.171C60.2173 296.838 60.4288 297.484 60.7898 298.046C61.3631 298.66 62.0269 299.184 62.7581 299.598C63.7188 300.392 64.4888 301.392 65.0115 302.524C65.5342 303.656 65.7962 304.891 65.7782 306.138C65.715 308.629 65.24 311.092 64.3723 313.428C63.4162 316.693 62.7198 320.029 62.2894 323.404C61.95 325.472 61.0738 327.415 59.7484 329.038C59.3553 329.551 58.8184 329.934 58.2063 330.14C57.5942 330.346 56.9346 330.365 56.3117 330.194Z" fill="#689AC8"/>
<path d="M59.7693 328.466C59.7079 328.465 59.6478 328.448 59.5948 328.417C59.5419 328.386 59.4979 328.342 59.4672 328.288C47.314 307.793 43.4711 293.36 42.3777 284.851C41.18 275.583 42.8671 271.24 42.94 271.063C42.9571 271.019 42.9827 270.979 43.0152 270.945C43.0478 270.911 43.0866 270.884 43.1297 270.865C43.1727 270.847 43.219 270.836 43.266 270.835C43.313 270.834 43.3597 270.843 43.4035 270.86C43.4472 270.877 43.4872 270.902 43.5211 270.935C43.555 270.968 43.5821 271.006 43.601 271.049C43.6198 271.093 43.63 271.139 43.631 271.186C43.6319 271.233 43.6236 271.279 43.6065 271.323C43.6065 271.396 41.9194 275.76 43.0962 284.862C44.1377 293.287 48.0325 307.596 60.0817 327.934C60.106 327.975 60.1221 328.019 60.129 328.066C60.1359 328.112 60.1335 328.16 60.1218 328.205C60.1102 328.251 60.0896 328.294 60.0613 328.331C60.0329 328.369 59.9974 328.4 59.9567 328.424C59.8982 328.452 59.8341 328.466 59.7693 328.466Z" fill="white"/>
<path d="M53.2708 316.583C38.4619 314.958 34.2755 310.095 34.0984 309.887C34.0323 309.82 33.9951 309.731 33.9951 309.637C33.9951 309.543 34.0323 309.453 34.0984 309.387C34.1305 309.353 34.1693 309.326 34.2123 309.307C34.2552 309.289 34.3016 309.279 34.3484 309.279C34.3952 309.279 34.4415 309.289 34.4845 309.307C34.5274 309.326 34.5662 309.353 34.5983 309.387C34.5983 309.439 38.8264 314.24 53.2917 315.833C53.3764 315.848 53.4534 315.892 53.5089 315.957C53.5643 316.023 53.5948 316.106 53.5948 316.192C53.5948 316.279 53.5643 316.362 53.5089 316.428C53.4534 316.493 53.3764 316.537 53.2917 316.552L53.2708 316.583Z" fill="white"/>
<path d="M49.0948 307.356C49.0159 307.356 48.9392 307.331 48.8761 307.283C48.8389 307.255 48.8078 307.219 48.7845 307.178C48.7612 307.138 48.7462 307.093 48.7404 307.046C48.7346 307 48.7381 306.953 48.7507 306.907C48.7632 306.862 48.7846 306.82 48.8136 306.783C53.5104 300.608 53.8124 290.485 53.8228 290.381C53.8227 290.334 53.8323 290.288 53.8508 290.245C53.8694 290.201 53.8966 290.163 53.9307 290.13C53.9649 290.098 54.0053 290.073 54.0494 290.057C54.0935 290.041 54.1405 290.035 54.1873 290.037C54.2342 290.037 54.2807 290.047 54.3238 290.065C54.3669 290.084 54.4058 290.111 54.438 290.145C54.4702 290.179 54.495 290.22 54.511 290.264C54.527 290.308 54.5338 290.355 54.531 290.402C54.531 290.829 54.2185 300.816 49.3864 307.21C49.3524 307.256 49.3084 307.292 49.2578 307.318C49.2072 307.343 49.1514 307.356 49.0948 307.356Z" fill="white"/>
<path d="M352.604 266.897C354.041 257.212 354.062 245.392 346.949 228.125C339.836 210.859 342.044 201.809 349.667 199.341C357.29 196.873 374.182 209.984 373.557 232.031C372.943 253.317 358.561 270.896 358.561 270.896L352.604 266.897Z" fill="#689AC8"/>
<path opacity="0.1" d="M352.604 266.897C354.041 257.212 354.062 245.392 346.949 228.125C339.836 210.859 342.044 201.809 349.667 199.341C357.29 196.873 374.182 209.984 373.557 232.031C372.943 253.317 358.561 270.896 358.561 270.896L352.604 266.897Z" fill="black"/>
<path d="M356.322 269.751C356.277 269.76 356.231 269.76 356.186 269.751C356.142 269.734 356.102 269.708 356.068 269.675C356.034 269.641 356.008 269.601 355.99 269.557C355.973 269.513 355.964 269.466 355.966 269.419C355.967 269.371 355.979 269.325 355.999 269.282C356.072 269.105 363.862 250.912 363.289 234.395C362.643 215.389 352.115 204.933 352.01 204.829C351.977 204.796 351.95 204.757 351.932 204.714C351.913 204.671 351.904 204.624 351.903 204.578C351.903 204.531 351.911 204.484 351.929 204.441C351.946 204.397 351.972 204.357 352.005 204.324C352.038 204.29 352.077 204.264 352.12 204.245C352.163 204.227 352.21 204.217 352.257 204.217C352.304 204.216 352.35 204.225 352.394 204.243C352.437 204.26 352.477 204.286 352.51 204.319C352.614 204.423 363.341 215.056 363.966 234.374C364.539 251.037 356.676 269.386 356.613 269.563C356.584 269.616 356.542 269.661 356.491 269.694C356.44 269.727 356.382 269.746 356.322 269.751Z" fill="white"/>
<path d="M353.021 275.489C353.021 275.489 357.04 252.078 371.308 238.623C385.575 225.168 409.361 222.606 416.818 229.792C424.274 236.977 419.494 243.965 408.986 246.392C397.114 249.131 389.835 253.921 397.114 257.587C403.873 260.982 403.113 268.345 396.073 271.875C384.825 277.52 364.518 272.146 359.623 283.247L353.021 275.489Z" fill="#689AC8"/>
<path d="M356.041 280.446H355.926C355.837 280.413 355.765 280.347 355.724 280.261C355.683 280.176 355.677 280.078 355.707 279.988C358.996 270.833 364.065 262.42 370.62 255.233C375.759 249.676 381.775 245 388.429 241.393C395.039 237.745 402.236 235.278 409.694 234.103C409.789 234.094 409.884 234.123 409.958 234.184C410.032 234.244 410.079 234.331 410.09 234.426C410.096 234.473 410.092 234.52 410.08 234.565C410.067 234.61 410.046 234.652 410.017 234.689C409.987 234.726 409.951 234.757 409.91 234.779C409.869 234.802 409.824 234.817 409.778 234.822C402.394 236.007 395.275 238.475 388.741 242.112C378.327 247.766 364.195 258.983 356.353 280.279C356.319 280.331 356.272 280.373 356.218 280.402C356.163 280.431 356.102 280.446 356.041 280.446Z" fill="white"/>
<path d="M363.279 265.72C363.204 265.721 363.13 265.698 363.069 265.655C363.007 265.612 362.961 265.551 362.935 265.481C362.905 265.391 362.91 265.293 362.951 265.207C362.992 265.122 363.065 265.056 363.154 265.023C375.328 260.774 392.782 263.002 392.959 263.023C393.005 263.029 393.05 263.045 393.091 263.068C393.131 263.092 393.167 263.123 393.195 263.16C393.224 263.197 393.245 263.24 393.257 263.285C393.269 263.33 393.272 263.378 393.266 263.424C393.26 263.471 393.245 263.515 393.221 263.556C393.198 263.597 393.166 263.632 393.129 263.661C393.092 263.689 393.049 263.71 393.004 263.722C392.959 263.734 392.912 263.737 392.865 263.731C392.698 263.731 375.401 261.503 363.393 265.7C363.357 265.716 363.318 265.723 363.279 265.72Z" fill="white"/>
<path d="M71.2665 25.6436C71.1794 24.0352 70.7144 22.47 69.9092 21.0749C69.104 19.6799 67.9813 18.4943 66.6322 17.6143L62.8519 15.4274C61.4158 14.6983 59.8281 14.3183 58.2176 14.3183C56.6071 14.3183 55.0193 14.6983 53.5833 15.4274L23.6843 32.6836C22.2604 33.5783 21.0968 34.8317 20.3101 36.3181C19.6328 37.499 19.2073 38.8074 19.0605 40.1609C19.0605 40.3484 19.0605 40.5358 19.0605 40.7233V75.2357C19.1487 76.845 19.6153 78.4108 20.4223 79.8059C21.2293 81.2011 22.3541 82.3862 23.7052 83.265L27.4751 85.4519L27.9541 85.7019L28.1312 85.7748L28.454 85.9102L28.7039 86.0039L28.9747 86.0976L29.2767 86.1809L29.5058 86.2434L29.8599 86.3267H30.0369L30.4639 86.3996H30.5472C32.6823 86.7496 34.8732 86.4027 36.7957 85.4103L66.6322 68.1957C67.9835 67.3147 69.1082 66.1277 69.9151 64.7308C70.7221 63.334 71.1886 61.7668 71.2769 60.156L71.2665 25.6436Z" fill="#689AC8"/>
<path opacity="0.4" d="M33.4528 43.6913C32.9174 44.5781 32.5172 45.5399 32.2656 46.5448C32.8873 43.9419 34.4872 41.6783 36.7333 40.2234L66.6322 22.9672C69.1941 21.4884 71.2769 22.686 71.2769 25.6437C71.1887 24.0343 70.7221 22.4685 69.9151 21.0734C69.1081 19.6783 67.9833 18.4932 66.6322 17.6144L62.8519 15.4274C61.4159 14.6983 59.8281 14.3184 58.2176 14.3184C56.6071 14.3184 55.0194 14.6983 53.5833 15.4274L23.6844 32.6836C22.2605 33.5784 21.0969 34.8318 20.3102 36.3181L20.4039 36.1515L33.4528 43.6913Z" fill="white"/>
<path opacity="0.1" d="M35.7752 85.8894L35.5565 85.9518L35.1816 86.0247H34.8275H34.463C34.0323 85.9931 33.62 85.8376 33.2758 85.5769L33.1091 85.4207L33.0154 85.3374L32.8904 85.1812L32.7863 85.0458L32.6822 84.8792L32.5884 84.7126C32.5884 84.7126 32.5884 84.598 32.5155 84.5355C32.4834 84.4715 32.4555 84.4054 32.4322 84.3377L32.2656 84.171V83.9627C32.2656 83.9003 32.2656 83.8378 32.2656 83.7753C32.2598 83.6747 32.2598 83.5739 32.2656 83.4733C32.2599 83.4179 32.2599 83.3621 32.2656 83.3067C32.2656 83.1504 32.2656 82.9838 32.2656 82.8068V48.2631C32.2662 47.8897 32.2975 47.517 32.3593 47.1488C32.3593 47.0134 32.3593 46.8676 32.4426 46.7322V46.5656C32.6812 45.563 33.0672 44.6014 33.5882 43.7121L20.4039 36.1515L20.3102 36.3181C19.6328 37.4991 19.2073 38.8075 19.0605 40.1609C19.0605 40.3484 19.0605 40.5358 19.0605 40.7233V75.2357C19.1487 76.845 19.6153 78.4109 20.4223 79.806C21.2294 81.2011 22.3541 82.3862 23.7052 83.265L27.4751 85.452L27.9541 85.7019L28.1312 85.7748L28.454 85.9102L28.704 86.0039L28.9747 86.0976L29.2767 86.181L29.5059 86.2434L29.8599 86.3268H30.037L30.4639 86.3996H30.5473C32.3052 86.6668 34.102 86.4914 35.7752 85.8894Z" fill="#689AC8"/>
<path d="M58.2072 57.2922C60.2042 52.8312 61.2267 47.9956 61.2065 43.1081C62.1822 41.5945 63.0021 39.986 63.6538 38.3072C62.8131 39.293 61.8666 40.1836 60.8316 40.9628C61.882 39.4947 62.616 37.8244 62.9873 36.0578C62.086 37.3108 61.037 38.4507 59.8631 39.4528C59.3438 39.0665 58.7138 38.8578 58.0666 38.8578C57.4194 38.8578 56.7894 39.0665 56.2702 39.4528C53.1459 41.2857 50.7715 46.576 51.4901 50.2626C47.4078 52.3455 43.7836 51.8248 41.3676 49.2212C40.0762 52.9078 40.7011 56.407 42.888 57.0839C42.2188 57.4858 41.4338 57.6508 40.6594 57.5525C40.6594 60.6768 42.2319 62.5201 44.5959 61.7807C43.9693 62.4047 43.2116 62.8814 42.3777 63.1762C43.0026 65.4152 44.8146 66.3004 46.9704 65.0819C45.2922 68.0659 42.7511 70.4727 39.6805 71.9865C41.8466 72.5905 44.4293 72.1844 47.2099 70.5806C52.0629 67.7792 55.7911 62.7075 58.176 57.2193" fill="white"/>
<path d="M71.2665 151.311C71.173 149.71 70.705 148.153 69.9001 146.765C69.0952 145.378 67.9759 144.199 66.6322 143.323L62.8519 141.136C61.4159 140.407 59.8281 140.027 58.2176 140.027C56.6071 140.027 55.0193 140.407 53.5833 141.136L23.6948 158.392C22.2709 159.287 21.1072 160.541 20.3206 162.027C19.6432 163.208 19.2178 164.516 19.0709 165.87C19.0709 166.057 19.0709 166.245 19.0709 166.432V200.945C19.162 202.544 19.6269 204.1 20.4281 205.487C21.2293 206.874 22.3445 208.054 23.6844 208.932L27.4543 211.119L27.9333 211.359L28.1104 211.442L28.4332 211.577L28.6831 211.671L28.9539 211.765L29.2559 211.848L29.485 211.911L29.8391 211.994H30.0161L30.4431 212.067H30.5264C32.6671 212.401 34.8583 212.036 36.7749 211.025L66.6322 193.863C67.9835 192.982 69.1082 191.795 69.9152 190.398C70.7221 189.001 71.1886 187.434 71.2769 185.823L71.2665 151.311Z" fill="#689AC8"/>
<path opacity="0.4" d="M33.4528 169.359C32.9319 170.248 32.5458 171.209 32.3072 172.212C32.9187 169.616 34.5029 167.353 36.7333 165.891L66.6322 148.634C69.1941 147.156 71.2769 148.353 71.2769 151.311C71.1823 149.709 70.7127 148.151 69.9059 146.764C69.0992 145.376 67.9778 144.198 66.6322 143.323L62.8519 141.136C61.4159 140.407 59.8281 140.027 58.2176 140.027C56.6071 140.027 55.0193 140.407 53.5833 141.136L23.6948 158.392C22.2709 159.287 21.1072 160.541 20.3206 162.027L20.4143 161.86L33.4528 169.359Z" fill="white"/>
<path opacity="0.1" d="M35.7752 211.557L35.5565 211.619C35.4339 211.657 35.3085 211.685 35.1815 211.702H34.8275H34.463C34.0323 211.671 33.62 211.515 33.2758 211.255L33.1091 211.098L33.0154 211.015L32.8904 210.848L32.7863 210.723L32.6822 210.557L32.5884 210.39C32.5884 210.328 32.5884 210.276 32.5155 210.213C32.4815 210.146 32.4536 210.077 32.4322 210.005L32.3697 209.828L32.3072 209.578C32.3072 209.578 32.3072 209.463 32.3072 209.401C32.3015 209.3 32.3015 209.199 32.3072 209.099C32.3015 209.043 32.3015 208.988 32.3072 208.932C32.3072 208.776 32.3072 208.599 32.3072 208.422V173.93C32.3078 173.557 32.3392 173.184 32.401 172.816C32.401 172.67 32.401 172.535 32.4843 172.399V172.233C32.7228 171.23 33.1089 170.269 33.6298 169.379L20.5809 161.84L20.4872 162.006C19.8099 163.187 19.3844 164.496 19.2375 165.849C19.2375 166.036 19.2375 166.224 19.2375 166.411V200.924C19.3067 202.512 19.7445 204.063 20.5163 205.453C21.2881 206.842 22.3727 208.034 23.6844 208.932L27.4543 211.119L27.9333 211.359L28.1104 211.442L28.4332 211.577L28.6831 211.671L28.9539 211.765L29.2559 211.848L29.485 211.911L29.8391 211.994H30.0161L30.4431 212.067H30.5264C32.2912 212.338 34.0956 212.162 35.7752 211.557Z" fill="#689AC8"/>
<path d="M51.6776 167.276C54.7393 165.505 55.1038 165.318 56.3118 164.693C56.9478 164.311 57.6579 164.07 58.3947 163.985C58.8656 163.937 59.3366 164.075 59.7069 164.37C60.1232 164.686 60.4263 165.128 60.5712 165.63C60.8395 166.475 60.9731 167.358 60.967 168.244C61.019 169.817 61.0295 170.327 61.0295 174.378C61.0295 178.429 61.0294 178.94 60.967 180.627C60.9487 181.659 60.816 182.686 60.5712 183.688C60.3828 184.473 60.0922 185.229 59.7069 185.938C59.3614 186.632 58.9197 187.273 58.3947 187.844C57.7824 188.518 57.0818 189.106 56.3118 189.593C55.1038 190.364 54.7393 190.635 51.6776 192.353C48.6158 194.071 48.2617 194.321 47.0537 194.946C46.4169 195.324 45.7069 195.562 44.9709 195.644C44.4967 195.692 44.0223 195.554 43.6483 195.258C43.238 194.939 42.9391 194.498 42.7943 193.998C42.5266 193.157 42.393 192.278 42.3986 191.395C42.3986 189.812 42.3257 189.312 42.3257 185.261C42.3257 181.21 42.3257 180.689 42.3986 179.012C42.414 177.96 42.5468 176.912 42.7943 175.888C42.9856 175.106 43.2724 174.351 43.6483 173.639C44.0025 172.948 44.4473 172.307 44.9709 171.733C45.5808 171.056 46.2818 170.467 47.0537 169.983C48.2617 169.213 48.6262 168.942 51.6776 167.224V167.276ZM51.6776 164.474C48.5533 166.266 48.1784 166.557 46.96 167.286C45.9312 167.929 44.9956 168.711 44.1794 169.609C43.3521 170.482 42.651 171.467 42.0966 172.535C41.5158 173.633 41.0717 174.797 40.774 176.003C40.4499 177.319 40.2718 178.667 40.2429 180.023C40.2429 181.678 40.17 182.21 40.17 186.354C40.17 190.499 40.17 191.02 40.2429 192.603C40.2431 193.759 40.4222 194.907 40.774 196.008C41.0047 196.775 41.4666 197.451 42.0966 197.945C42.6874 198.406 43.4344 198.619 44.1794 198.539C45.1595 198.442 46.1075 198.136 46.96 197.643C48.1784 197.008 48.5637 196.8 51.6776 195.009C54.7914 193.217 55.1767 192.926 56.4056 192.186C58.4527 190.92 60.116 189.12 61.2169 186.979C61.7962 185.882 62.2369 184.717 62.5291 183.511C62.8573 182.199 63.0389 180.854 63.0706 179.502C63.0706 177.836 63.1331 177.305 63.1331 173.16C63.1331 169.015 63.1331 168.505 63.0706 166.911C63.0692 165.758 62.8865 164.613 62.5291 163.516C62.3 162.749 61.8422 162.069 61.2169 161.569C60.6256 161.11 59.8779 160.9 59.1341 160.986C58.153 161.078 57.2039 161.383 56.3535 161.881C55.1246 162.506 54.7393 162.714 51.6255 164.516L51.6776 164.474ZM51.6255 171.941C48.3763 173.816 45.7415 178.846 45.7415 183.178C45.7415 187.51 48.3763 189.499 51.6255 187.625C54.8747 185.75 57.5095 180.72 57.5095 176.388C57.5095 172.056 54.8747 170.067 51.6255 171.941ZM51.6255 184.876C49.5427 186.094 47.8139 184.803 47.8139 181.991C47.8139 179.179 49.5218 175.909 51.6255 174.701C53.7291 173.493 55.4475 174.774 55.4475 177.596C55.4475 180.418 53.7396 183.668 51.6255 184.886V184.876ZM59.1133 167.317C59.1133 166.276 58.4988 165.839 57.7386 166.276C57.3188 166.577 56.9757 166.972 56.7369 167.429C56.4981 167.887 56.3703 168.395 56.3639 168.911C56.3639 169.952 56.9784 170.379 57.7386 169.952C58.1569 169.653 58.4992 169.259 58.7379 168.803C58.9767 168.348 59.1052 167.842 59.1133 167.328" fill="white"/>
<path d="M123.295 70.9555C123.214 69.3506 122.756 67.7875 121.958 66.3926C121.16 64.9977 120.045 63.8102 118.703 62.9262L114.923 60.7392C113.485 60.0101 111.895 59.6301 110.283 59.6301C108.671 59.6301 107.081 60.0101 105.644 60.7392L75.755 77.9954C74.491 78.834 73.4239 79.9368 72.6275 81.2277C71.831 82.5186 71.324 83.9669 71.1415 85.4728C71.1415 85.6602 71.1415 85.8477 71.1415 86.0352V120.548C71.2278 122.156 71.6924 123.722 72.4977 125.117C73.3029 126.512 74.4261 127.698 75.7758 128.577L79.5562 130.764L80.0352 131.014L80.2122 131.087L80.5351 131.222L80.7746 131.316L81.0558 131.409L81.3474 131.493L81.5869 131.555L81.941 131.639H82.118L82.545 131.712H82.6283C84.7633 132.061 86.9541 131.714 88.8768 130.722L118.703 113.508C120.053 112.626 121.176 111.439 121.981 110.042C122.786 108.645 123.251 107.078 123.337 105.468L123.295 70.9555Z" fill="#689AC8"/>
<path opacity="0.4" d="M85.4922 89.0032C84.9727 89.8943 84.5834 90.8552 84.3362 91.8567C84.9502 89.2588 86.5383 86.9959 88.7726 85.5353L118.703 68.2791C121.265 66.8003 123.337 67.9979 123.337 70.9555C123.251 69.3469 122.786 67.7814 121.981 66.3862C121.176 64.991 120.053 63.8056 118.703 62.9262L114.922 60.7392C113.485 60.0101 111.895 59.6301 110.283 59.6301C108.671 59.6301 107.081 60.0101 105.644 60.7392L75.755 77.9954C74.3365 78.8935 73.177 80.1463 72.3912 81.63L72.4745 81.4634L85.4922 89.0032Z" fill="white"/>
<path opacity="0.1" d="M87.8145 131.201L87.5854 131.264C87.4664 131.301 87.3445 131.329 87.2209 131.347H86.8773H86.419C85.9919 131.314 85.5833 131.158 85.2422 130.899L85.0756 130.743L84.9819 130.66L84.8465 130.493L84.7528 130.368C84.7121 130.317 84.6771 130.261 84.6487 130.201L84.5549 130.035C84.5549 129.983 84.5549 129.92 84.4716 129.858L84.3987 129.66L84.3362 129.472C84.3362 129.396 84.3154 129.313 84.2737 129.223C84.2678 129.164 84.2678 129.104 84.2737 129.045C84.268 128.945 84.268 128.844 84.2737 128.743C84.268 128.688 84.268 128.632 84.2737 128.577C84.2631 128.41 84.2631 128.243 84.2737 128.077V93.575C84.2795 93.2018 84.3108 92.8295 84.3675 92.4607C84.3675 92.3149 84.3675 92.1795 84.4404 92.0441C84.4444 91.9886 84.4444 91.9329 84.4404 91.8775C84.6876 90.876 85.0768 89.9151 85.5963 89.024L72.537 81.4842L72.4537 81.6508C71.7719 82.8297 71.3461 84.1391 71.204 85.4936C71.204 85.6811 71.204 85.8685 71.204 86.056V120.568C71.2903 122.177 71.7549 123.742 72.5602 125.138C73.3654 126.533 74.4886 127.718 75.8383 128.598L79.6186 130.785L80.0977 131.035L80.2747 131.107L80.5976 131.243L80.8371 131.337L81.1183 131.43L81.4099 131.514L81.6494 131.576L82.0035 131.659H82.1805L82.6075 131.732H82.6908C84.4165 131.975 86.1754 131.793 87.8145 131.201Z" fill="#689AC8"/>
<path d="M100.489 118.663L105.477 115.778V99.1153L108.955 97.1053L109.32 91.3151L105.477 93.5333V90.357C105.477 89.0448 105.675 88.4096 106.622 87.868L109.32 86.3059V80.5157L105.873 82.5152C104.167 83.4141 102.754 84.7819 101.8 86.4572C100.846 88.1326 100.391 90.0457 100.489 91.9712V96.4597L97.8746 97.9281V103.573L100.468 102.083L100.489 118.663Z" fill="white"/>
<path d="M55.7598 335.985L175.241 404.947C176.645 405.66 178.197 406.032 179.771 406.032C181.346 406.032 182.898 405.66 184.301 404.947L370.631 297.379C373.13 295.932 373.13 293.599 370.631 292.172L251.15 223.168C249.748 222.455 248.197 222.083 246.625 222.083C245.052 222.083 243.501 222.455 242.1 223.168L55.7598 330.777C53.2604 332.194 53.2604 334.527 55.7598 335.985Z" fill="#E0E0E0"/>
<path d="M59.5193 319.322L175.616 386.358C177.035 387.077 178.603 387.452 180.193 387.452C181.783 387.452 183.351 387.077 184.77 386.358L368.84 280.102C371.37 278.644 371.37 276.28 368.84 274.822L252.733 207.787C251.314 207.068 249.746 206.693 248.156 206.693C246.565 206.693 244.997 207.068 243.579 207.787L59.5193 314.115C56.9887 315.521 56.9887 317.885 59.5193 319.322Z" fill="#37474F"/>
<path d="M175.616 386.379L59.5193 319.322C57.2595 318.02 57.0199 315.989 58.8008 314.531C57.6692 315.429 56.74 316.555 56.0742 317.836C55.4083 319.118 55.0208 320.525 54.9371 321.967V326.268C55.0238 327.858 55.4838 329.405 56.2799 330.784C57.076 332.162 58.1858 333.334 59.5193 334.204L175.616 401.229C177.025 401.978 178.603 402.354 180.198 402.323V387.472C178.603 387.504 177.025 387.127 175.616 386.379Z" fill="#455A64"/>
<path d="M368.84 294.974C370.172 294.106 371.28 292.936 372.074 291.558C372.869 290.181 373.327 288.636 373.411 287.049V282.748C373.328 281.306 372.941 279.898 372.275 278.616C371.609 277.335 370.68 276.209 369.548 275.312C371.329 276.77 371.1 278.801 368.84 280.102L184.77 386.379C183.364 387.125 181.79 387.502 180.198 387.472V402.343C181.79 402.373 183.364 401.997 184.77 401.25L368.84 294.974Z" fill="#263238"/>
<path d="M121.827 350.283C123.797 351.285 125.975 351.807 128.185 351.807C130.395 351.807 132.573 351.285 134.543 350.283C138.052 348.2 138.052 344.972 134.543 342.941C132.571 341.945 130.394 341.427 128.185 341.427C125.976 341.427 123.798 341.945 121.827 342.941C118.359 344.972 118.359 348.263 121.827 350.283Z" fill="#263238"/>
<path d="M193.685 372.153L82.5554 307.95C81.0453 307.075 81.0453 305.648 82.5554 304.773L227.312 221.169C228.162 220.738 229.102 220.513 230.056 220.513C231.009 220.513 231.949 220.738 232.8 221.169L343.929 285.372C345.45 286.247 345.45 287.663 343.929 288.496L199.173 372.111C198.325 372.549 197.387 372.78 196.434 372.788C195.48 372.795 194.538 372.577 193.685 372.153Z" fill="white"/>
<path d="M302.387 246.017C302.886 246.269 303.437 246.4 303.996 246.4C304.555 246.4 305.106 246.269 305.605 246.017C305.778 245.931 305.924 245.798 306.026 245.633C306.128 245.468 306.182 245.278 306.182 245.085C306.182 244.891 306.128 244.701 306.026 244.537C305.924 244.372 305.778 244.239 305.605 244.153C305.106 243.901 304.555 243.77 303.996 243.77C303.437 243.77 302.886 243.901 302.387 244.153C301.492 244.663 301.492 245.496 302.387 246.017Z" fill="#263238"/>
<path d="M307.532 260.618C308.53 261.121 309.632 261.383 310.75 261.383C311.867 261.383 312.97 261.121 313.968 260.618C315.748 259.576 315.748 257.92 313.968 256.9C312.971 256.391 311.868 256.126 310.75 256.126C309.631 256.126 308.528 256.391 307.532 256.9C305.751 257.879 305.751 259.587 307.532 260.618Z" fill="#263238"/>
<path d="M303.033 254.14C304.22 253.463 304.158 252.317 302.887 251.588L281.705 239.352C281.024 238.99 280.267 238.794 279.496 238.78C278.726 238.765 277.962 238.933 277.268 239.269C276.081 239.956 276.144 241.101 277.414 241.83L298.596 254.067C299.278 254.427 300.035 254.621 300.806 254.634C301.577 254.646 302.34 254.477 303.033 254.14Z" fill="#263238"/>
<path d="M225.437 238.435C223.917 239.31 223.917 240.727 225.437 241.56L310.104 290.454C310.956 290.885 311.898 291.11 312.853 291.11C313.809 291.11 314.75 290.885 315.603 290.454L334.348 279.655L244.183 227.584L225.437 238.435Z" fill="#EBEBEB"/>
<path d="M226.062 246.923L219.303 243.028C219.021 242.884 218.709 242.81 218.392 242.81C218.075 242.81 217.763 242.884 217.481 243.028L213.221 245.486C212.711 245.777 212.711 246.246 213.221 246.527L213.805 246.871L211.649 248.016C211.399 248.152 211.42 248.235 211.711 248.214L215.502 247.85L219.98 250.433C220.265 250.572 220.579 250.645 220.897 250.645C221.214 250.645 221.528 250.572 221.813 250.433L226.062 247.975C226.169 247.934 226.261 247.862 226.326 247.768C226.39 247.675 226.425 247.563 226.425 247.449C226.425 247.335 226.39 247.223 226.326 247.129C226.261 247.035 226.169 246.963 226.062 246.923Z" fill="#EBEBEB"/>
<path d="M228.051 257.087L227.551 256.046C226.906 254.681 226.51 252.828 228.384 251.755C229.095 251.395 229.879 251.208 230.675 251.208C231.471 251.208 232.256 251.395 232.967 251.755C233.945 252.317 234.164 253.161 233.623 253.838C234.839 253.505 236.135 253.639 237.257 254.213C237.535 254.303 237.778 254.479 237.95 254.716C238.122 254.953 238.215 255.238 238.215 255.53C238.215 255.823 238.122 256.108 237.95 256.344C237.778 256.581 237.535 256.757 237.257 256.848C235.424 257.889 232.217 257.702 229.853 257.337L228.051 257.087Z" fill="#EBEBEB"/>
<path d="M135.261 293.662L219.938 342.556C220.791 342.987 221.733 343.212 222.688 343.212C223.643 343.212 224.585 342.987 225.437 342.556L291.379 304.471C292.889 303.597 292.889 302.18 291.379 301.347L206.702 252.411C205.85 251.98 204.908 251.756 203.953 251.756C202.998 251.756 202.056 251.98 201.203 252.411L135.261 290.496C133.741 291.37 133.741 292.787 135.261 293.662Z" fill="#EBEBEB"/>
<path d="M135.907 298.983L129.117 295.078C128.832 294.938 128.518 294.865 128.2 294.865C127.883 294.865 127.569 294.938 127.284 295.078L123.025 297.536C122.921 297.578 122.833 297.65 122.77 297.743C122.708 297.835 122.675 297.945 122.675 298.056C122.675 298.168 122.708 298.277 122.77 298.37C122.833 298.463 122.921 298.535 123.025 298.577L123.618 298.921L121.463 300.056C121.202 300.191 121.233 300.285 121.463 300.254L125.253 299.9L129.731 302.482C130.017 302.622 130.33 302.695 130.648 302.695C130.965 302.695 131.279 302.622 131.564 302.482L135.824 300.014C135.932 299.983 136.028 299.92 136.1 299.833C136.171 299.746 136.214 299.64 136.223 299.528C136.232 299.415 136.207 299.303 136.15 299.206C136.094 299.109 136.009 299.031 135.907 298.983Z" fill="#EBEBEB"/>
<path d="M137.844 309.137L137.354 308.096C136.698 306.731 136.313 304.878 138.188 303.794C138.896 303.435 139.679 303.248 140.474 303.248C141.268 303.248 142.051 303.435 142.759 303.794C143.801 304.367 143.967 305.211 143.415 305.877C144.636 305.557 145.931 305.69 147.06 306.252C147.337 306.345 147.578 306.523 147.749 306.761C147.919 306.998 148.011 307.283 148.011 307.575C148.011 307.867 147.919 308.152 147.749 308.389C147.578 308.626 147.337 308.804 147.06 308.897C145.228 309.939 142.02 309.751 139.646 309.387L137.844 309.137Z" fill="#EBEBEB"/>
<path d="M111.048 304.471C111.901 304.04 112.843 303.816 113.798 303.816C114.753 303.816 115.695 304.04 116.547 304.471L201.214 353.355C202.734 354.23 202.734 355.657 201.214 356.532L183.937 366.508L93.7922 314.438L111.048 304.471Z" fill="#EBEBEB"/>
<path d="M205.14 293.214L156.943 306.158L219.959 342.545C220.812 342.976 221.754 343.201 222.709 343.201C223.664 343.201 224.606 342.976 225.458 342.545L226.822 341.754L254.014 301.857L196.267 313.188L205.14 293.214Z" fill="#E0E0E0"/>
<path d="M228.874 265.221L206.702 252.411C205.85 251.98 204.908 251.756 203.953 251.756C202.998 251.756 202.056 251.98 201.203 252.411L176.418 266.731C177.553 268.886 179.896 270.896 183.447 272.635C193.862 277.613 210.816 277.613 221.261 272.635C225.635 270.553 228.166 267.928 228.874 265.221Z" fill="#E0E0E0"/>
<path opacity="0.2" d="M335.796 260.711L224.656 196.519C223.806 196.088 222.865 195.863 221.912 195.863C220.958 195.863 220.018 196.088 219.168 196.519L74.4115 280.123C72.9015 280.998 72.9015 282.414 74.4115 283.247L97.9058 296.786L185.582 347.43C186.433 347.861 187.373 348.085 188.326 348.085C189.28 348.085 190.22 347.861 191.071 347.43L321.372 272.146L335.785 263.815C337.316 263.013 337.316 261.586 335.796 260.711Z" fill="white"/>
<path d="M336.066 260.253L244.172 207.141L224.927 196.06C223.995 195.583 222.964 195.335 221.917 195.335C220.871 195.335 219.839 195.583 218.908 196.06L74.1512 279.665C73.7386 279.824 73.3838 280.104 73.1336 280.468C72.8833 280.832 72.7494 281.264 72.7494 281.706C72.7494 282.148 72.8833 282.58 73.1336 282.944C73.3838 283.309 73.7386 283.589 74.1512 283.747L97.6454 297.286L185.353 347.961C186.284 348.44 187.316 348.689 188.363 348.689C189.41 348.689 190.442 348.44 191.373 347.961L321.664 272.677L336.087 264.346C336.499 264.185 336.852 263.903 337.102 263.538C337.351 263.173 337.484 262.741 337.484 262.299C337.484 261.857 337.351 261.426 337.102 261.061C336.852 260.695 336.499 260.414 336.087 260.253H336.066ZM335.535 263.429L321.112 271.761L190.821 347.044C190.049 347.429 189.199 347.63 188.337 347.63C187.475 347.63 186.624 347.429 185.853 347.044L98.1766 296.411L74.6927 282.873C74.4418 282.808 74.2194 282.662 74.0606 282.458C73.9018 282.253 73.8156 282.002 73.8156 281.743C73.8156 281.484 73.9018 281.232 74.0606 281.027C74.2194 280.823 74.4418 280.677 74.6927 280.613L219.449 197.008C220.221 196.625 221.071 196.426 221.933 196.426C222.795 196.426 223.645 196.625 224.417 197.008L243.672 208.099L335.567 261.211C335.817 261.275 336.04 261.421 336.199 261.626C336.357 261.83 336.444 262.082 336.444 262.341C336.444 262.6 336.357 262.852 336.199 263.056C336.04 263.261 335.817 263.407 335.567 263.471L335.535 263.429Z" fill="white"/>
<path d="M285.922 0.378955C287.453 -0.506245 288.703 0.212326 288.703 1.98273V206.714C288.649 207.679 288.37 208.618 287.887 209.456C287.404 210.293 286.731 211.006 285.922 211.536L206.025 257.67L196.653 288.913C195.809 291.745 194.122 291.87 192.893 289.173L184.312 270.23L160.984 283.695C159.453 284.58 158.204 283.862 158.204 282.091V77.3602C158.256 76.3945 158.535 75.4548 159.018 74.617C159.501 73.7793 160.174 73.0672 160.984 72.5384L285.922 0.378955Z" fill="#689AC8"/>
<path d="M275.717 158.424C275.621 159.749 275.214 161.034 274.528 162.172C273.842 163.31 272.897 164.27 271.77 164.974L227.874 190.322C225.698 191.572 223.927 190.687 223.927 188.323C224.026 186.998 224.434 185.715 225.12 184.577C225.806 183.439 226.749 182.478 227.874 181.772L271.79 156.435C273.957 155.175 275.717 156.07 275.717 158.424Z" fill="white"/>
<path d="M267.625 183.74C267.527 185.065 267.119 186.349 266.433 187.487C265.747 188.625 264.804 189.585 263.678 190.291L227.218 211.369C225.041 212.629 223.281 211.734 223.281 209.37C223.377 208.047 223.784 206.765 224.468 205.629C225.152 204.492 226.094 203.533 227.218 202.83L263.72 181.751C265.896 180.491 267.625 181.387 267.625 183.74Z" fill="white"/>
<path d="M201.86 219.753L201.766 218.524C199.777 223.543 196.777 227.147 193.435 229.073C187.53 232.489 182.25 229.458 182.25 220.419C182.25 211.9 186.415 202.559 192.903 198.841C197.163 196.383 200.068 198.195 200.547 199.268V197.185C200.547 196.029 201.724 194.415 203.161 193.582C204.599 192.749 205.786 193.509 205.786 195.29V214.608C205.786 217.066 206.702 217.566 208.004 216.805C210.378 215.441 212.565 209.599 212.565 202.944C212.565 190.093 205.827 184.105 195.08 190.312C185.01 196.123 177.022 210.807 177.022 223.637C177.022 236.228 184.572 241.029 194.455 235.332C197.293 233.569 199.808 231.332 201.891 228.719C203.016 227.344 204.244 226.928 204.786 227.907C205.327 228.886 204.994 230.906 203.88 232.281C201.245 235.587 198.077 238.431 194.507 240.695C182.208 247.787 172.908 241.601 172.908 226.043C172.908 210.151 182.646 192.332 195.132 185.115C207.619 177.898 216.773 184.313 216.773 200.393C216.773 210.14 212.951 218.68 207.525 221.804C204.526 223.449 202.391 223.064 201.86 219.753ZM187.915 216.826C187.915 221.804 190.331 224.533 194.018 222.408C197.704 220.284 200.266 214.827 200.266 209.797C200.266 204.954 197.798 202.507 193.966 204.714C190.331 206.776 187.915 212.056 187.915 216.826Z" fill="white"/>
<path d="M223.427 66.2587C244.995 53.7618 262.47 63.9051 262.47 88.8053C262.47 113.705 244.995 144 223.427 156.435C201.86 168.869 184.385 158.788 184.385 133.888C184.385 108.988 201.86 78.7557 223.427 66.2587Z" fill="white"/>
<path d="M223.427 66.2587C244.995 53.7618 262.47 63.9051 262.47 88.8053C262.47 113.705 244.995 144 223.427 156.435C201.86 168.869 184.385 158.788 184.385 133.888C184.385 108.988 201.86 78.7557 223.427 66.2587Z" fill="#F5F5F5"/>
<path d="M209.191 99.3236C207.402 99.6328 205.803 100.626 204.734 102.094C202.818 104.562 203.213 108.082 204.734 116.007L210.66 115.101L209.191 99.3236Z" fill="#263238"/>
<path d="M243.724 87.6598C245.055 87.3042 246.311 86.7116 247.432 85.9102C249.254 84.3793 249.723 86.3268 248.723 88.3888C248.06 89.8587 247.112 91.1825 245.934 92.2837C244.756 93.3848 243.372 94.2414 241.86 94.8039C241.798 94.5539 240.152 90.6382 240.152 90.6382L243.724 87.6598Z" fill="#263238"/>
<path d="M212.597 140.199C212.597 140.199 201.558 147.322 199.162 149.832C196.767 152.342 195.778 160.163 194.893 169.733C194.893 169.733 207.462 175.034 227.176 165.276C246.89 155.518 248.671 147.801 248.671 147.801C248.671 147.801 246.12 136.21 245.172 132.992C243.974 128.921 241.662 125.984 228.218 132.086L212.597 140.199Z" fill="#263238"/>
<path d="M211.972 114.757C211.087 115.518 209.837 114.164 208.754 113.32C207.671 112.477 204.13 111.873 202.359 116.069C200.589 120.266 204.651 124.286 207.046 125.317C207.865 125.662 208.767 125.761 209.642 125.602C210.517 125.443 211.326 125.033 211.972 124.422L212.597 140.199C212.597 140.199 215.721 145.604 224.26 144.479C232.8 143.354 231.019 134.773 228.228 132.086V128.837C228.228 128.837 232.633 128.546 234.706 127.442C235.82 126.848 238.465 122.932 240.173 118.892C243.695 111.448 244.498 103.007 242.443 95.033C239.392 82.8693 225.448 86.2122 217.137 93.6687C208.827 101.125 211.972 114.757 211.972 114.757Z" fill="#FFA8A7"/>
<path d="M246.13 75.4544C245.38 72.9966 244.922 73.434 238.892 77.6726C234.287 80.9151 229.147 83.3227 223.708 84.7854C219.459 86.0768 213.648 87.0974 210.66 91.0339C209.374 92.7269 208.719 94.8148 208.806 96.9387C208.553 96.7038 208.245 96.5356 207.91 96.4493C206.442 96.0535 204.64 97.1262 203.88 98.8549L209.087 100.24C208.681 103.239 207.514 112.497 208.785 113.31C209.878 114.007 211.555 116.351 212.003 116.226C213.492 115.799 214.086 109.196 214.898 105.197C215.783 100.646 216.127 98.9487 217.762 98.7612C223.072 97.924 228.299 96.6242 233.383 94.8767C239.007 92.6793 240.621 90.8152 240.621 90.8152L243.62 88.9094C244.959 86.9682 245.874 84.767 246.307 82.4489C246.739 80.1308 246.679 77.7477 246.13 75.4544Z" fill="#263238"/>
<path d="M228.207 128.837C228.207 128.837 220.324 129.368 217.575 128.639C215.991 128.262 214.621 127.274 213.763 125.89C214.153 127.338 214.897 128.666 215.929 129.754C217.939 131.836 228.207 130.941 228.207 130.941V128.837Z" fill="#F28F8F"/>
<path d="M226.197 119.683L229.801 120.069C229.652 120.603 229.332 121.074 228.89 121.409C228.448 121.744 227.908 121.924 227.353 121.922C226.354 121.818 225.843 120.818 226.197 119.683Z" fill="#F28F8F"/>
<path d="M231.404 105.624L231.925 114.986L236.893 111.977L231.404 105.624Z" fill="#F28F8F"/>
<path d="M226.312 108.957C226.302 109.425 226.145 109.878 225.862 110.252C225.58 110.626 225.187 110.902 224.739 111.039C224.552 111.104 224.352 111.12 224.157 111.088C223.962 111.056 223.777 110.976 223.621 110.856C223.464 110.735 223.339 110.577 223.258 110.397C223.177 110.216 223.142 110.018 223.156 109.821C223.169 109.352 223.328 108.898 223.612 108.524C223.896 108.151 224.291 107.876 224.739 107.738C224.926 107.673 225.126 107.656 225.321 107.688C225.516 107.72 225.7 107.8 225.856 107.921C226.012 108.042 226.136 108.2 226.215 108.381C226.295 108.562 226.328 108.76 226.312 108.957Z" fill="#263238"/>
<path d="M224.635 103.427L221.261 106.197C221.043 105.695 221.002 105.133 221.146 104.605C221.29 104.077 221.61 103.613 222.053 103.291C222.219 103.108 222.424 102.963 222.653 102.868C222.882 102.774 223.129 102.731 223.376 102.744C223.624 102.757 223.865 102.825 224.083 102.943C224.301 103.061 224.489 103.227 224.635 103.427Z" fill="#263238"/>
<path d="M240.402 100.511L237.278 98.9695C237.513 98.4875 237.915 98.1069 238.409 97.8982C238.903 97.6895 239.455 97.6668 239.965 97.8343C240.178 97.9745 240.359 98.1572 240.498 98.3711C240.637 98.5849 240.729 98.8251 240.77 99.0767C240.812 99.3282 240.8 99.5855 240.737 99.8323C240.673 100.079 240.559 100.31 240.402 100.511Z" fill="#263238"/>
<path d="M239.507 104.968C239.494 105.436 239.335 105.887 239.053 106.261C238.771 106.634 238.38 106.91 237.934 107.051C237.747 107.115 237.547 107.132 237.352 107.1C237.156 107.068 236.972 106.988 236.815 106.867C236.658 106.746 236.534 106.589 236.453 106.408C236.372 106.228 236.337 106.03 236.351 105.832C236.363 105.363 236.523 104.909 236.807 104.536C237.091 104.162 237.485 103.887 237.934 103.75C238.121 103.685 238.321 103.668 238.516 103.7C238.711 103.732 238.894 103.812 239.051 103.933C239.207 104.054 239.33 104.212 239.41 104.393C239.489 104.573 239.523 104.771 239.507 104.968Z" fill="#263238"/>
</svg>
